# xmcd
#
# Track frame offsets:
# 150
# 12690
# 26397
# 39115
# 50672
# 66295
# 76030
# 104375
# 116432
# 121875
# 134362
# 153857
# 169842
# 180242
# 191312
# 206067
# 216707
#
# Disc length: 3098 seconds
#
#
# Revision: 0
# Processed by: cddbd v1.5.2PL0 Copyright (c) Steve Scherf et al.
# Submitted via: Nero 7, 11, 10, 0 
#
DISCID=e20c1811
DTITLE=Geno Washington and The Ram Jam Band - Hand Clappin' - Foot Stompin' Funky-Butt...Live
DYEAR=1966
DGENRE=Blues
TTITLE0=Philly Dog
TTITLE1=Ride Your Pony Uptight
TTITLE2=I'm A Road Runner
TTITLE3=Hold On I'm Coming
TTITLE4=Don't Fight It
TTITLE5=Land Of A Thousand Dances
TTITLE6=Respect
TTITLE7=Willy Nilly
TTITLE8=Get Down With It
TTITLE9=Michael
TTITLE10=Que Sera Sera
TTITLE11=You Don't Know (Like I Know)
TTITLE12=Water
TTITLE13=Understanding
TTITLE14=Hi Hi Hazel
TTITLE15=Beach Bash
TTITLE16=Hold On To My Love
EXTD=
EXTT0=Philly Dog
EXTT1=Ride Your Pony Uptight
EXTT2=I'm A Road Runner
EXTT3=Hold On I'm Coming
EXTT4=Don't Fight It
EXTT5=Land Of A Thousand Dances
EXTT6=Respect
EXTT7=Willy Nilly
EXTT8=Get Down With It
EXTT9=Michael
EXTT10=Que Sera Sera
EXTT11=You Don't Know (Like I Know)
EXTT12=Water
EXTT13=Understanding
EXTT14=Hi Hi Hazel
EXTT15=Beach Bash
EXTT16=Hold On To My Love
PLAYORDER=
